{
	"asset":{
		"generator":"Khronos glTF Blender I/O v4.5.48",
		"version":"2.0"
	},
	"scene":0,
	"scenes":[
		{
			"name":"Scene",
			"nodes":[
				0
			]
		}
	],
	"nodes":[
		{
			"mesh":0,
			"name":"fc2_low.001",
			"rotation":[
				0.5,
				-0.5,
				0.5,
				0.5
			],
			"translation":[
				-1.6280752420425415,
				5.8176589012146,
				4.946255207061768
			]
		}
	],
	"materials":[
		{
			"doubleSided":true,
			"name":"Material.002",
			"pbrMetallicRoughness":{
				"baseColorTexture":{
					"index":0
				},
				"metallicRoughnessTexture":{
					"index":1
				}
			}
		}
	],
	"meshes":[
		{
			"name":"fc2_side.037",
			"primitives":[
				{
					"attributes":{
						"POSITION":0,
						"NORMAL":1,
						"TEXCOORD_0":2
					},
					"indices":3,
					"material":0
				}
			]
		}
	],
	"textures":[
		{
			"sampler":0,
			"source":0
		},
		{
			"sampler":0,
			"source":1
		}
	],
	"images":[
		{
			"mimeType":"image/jpeg",
			"name":"BaseColor",
			"uri":"BaseColor.jpg"
		},
		{
			"mimeType":"image/png",
			"name":"Metallic.jpg-Roughness",
			"uri":"Metallic.jpg-Roughness.png"
		}
	],
	"accessors":[
		{
			"bufferView":0,
			"componentType":5126,
			"count":3867,
			"max":[
				7.581050872802734,
				3.1500046253204346,
				5.786318778991699
			],
			"min":[
				-5.736440181732178,
				-3.6209824085235596,
				-6.097047328948975
			],
			"type":"VEC3"
		},
		{
			"bufferView":1,
			"componentType":5126,
			"count":3867,
			"type":"VEC3"
		},
		{
			"bufferView":2,
			"componentType":5126,
			"count":3867,
			"type":"VEC2"
		},
		{
			"bufferView":3,
			"componentType":5123,
			"count":6837,
			"type":"SCALAR"
		}
	],
	"bufferViews":[
		{
			"buffer":0,
			"byteLength":46404,
			"byteOffset":0,
			"target":34962
		},
		{
			"buffer":0,
			"byteLength":46404,
			"byteOffset":46404,
			"target":34962
		},
		{
			"buffer":0,
			"byteLength":30936,
			"byteOffset":92808,
			"target":34962
		},
		{
			"buffer":0,
			"byteLength":13674,
			"byteOffset":123744,
			"target":34963
		}
	],
	"samplers":[
		{
			"magFilter":9729,
			"minFilter":9987
		}
	],
	"buffers":[
		{
			"byteLength":137420,
			"uri":"Buildings.bin"
		}
	]
}
